<svg xmlns="http://www.w3.org/2000/svg" viewBox="0 0 512 512" style="height: 32px; width: 32px;"><defs><!-- react-text: 4 -->0<!-- /react-text --></defs><path d="M0 0h512v512H0z" fill="#2019bd" opacity="0" stroke="#fff" stroke-width="0"></path><path fill="#ffffff" opacity="1" d="M196 136c-61.174 0-111.656 45.834-119.063 105H16v30h60.938C84.344 330.166 134.825 376 196 376h15c8.31 0 15-6.69 15-15v-30h45v-30h-45v-90h45v-30h-45v-30c0-8.31-6.69-15-15-15h-15zm210 0c-8.31 0-15 6.69-15 15v30h30v30h-30v90h30v30h-30v30c0 8.31 6.69 15 15 15h90V136h-90z" transform="translate(0, 0) scale(1, 1) rotate(-720, 256, 256)" clip-path="false" filter="0"></path><g font-family="Arial, Helvetica, sans-serif" font-size="49" font-style="normal" font-weight="bold" text-anchor="middle" class="" transform="translate(338,300)" style="touch-action: none;"><text stroke="#000" stroke-width="12.25" opacity="1"></text><text fill="#fff" opacity="1"></text></g></svg>